<svg width="20" height="20" viewBox="0 0 20 20" fill="none" xmlns="http://www.w3.org/2000/svg">
<path d="M17.9525 5.92001C17.9647 6.09641 17.9647 6.27266 17.9647 6.45063C17.9647 11.8725 13.837 18.1256 6.28969 18.1256V18.1225C4.06001 18.1256 1.87655 17.487 0 16.2828C0.324219 16.3219 0.65 16.3414 0.976562 16.3422C2.82455 16.3437 4.61938 15.7239 6.07266 14.5824C5.2164 14.5662 4.3866 14.2828 3.69929 13.7719C3.01197 13.261 2.50149 12.5481 2.23922 11.7328C2.85438 11.8516 3.48812 11.827 4.09188 11.662C2.1775 11.2753 0.800313 9.59344 0.800313 7.64016V7.58813C1.37099 7.90605 2.00969 8.08219 2.66266 8.10173C0.859375 6.89673 0.303906 4.49813 1.39266 2.62298C2.4228 3.89058 3.70806 4.92731 5.16497 5.66583C6.62188 6.40436 8.21785 6.82815 9.84922 6.90969C9.68661 6.2095 9.71068 5.47889 9.91901 4.79092C10.1274 4.10294 10.5127 3.48173 11.0364 2.98938C12.6891 1.43579 15.2883 1.51548 16.8417 3.16735C17.7607 2.9859 18.6419 2.64898 19.4475 2.1711C19.1412 3.12121 18.5002 3.92772 17.6437 4.44063C18.4571 4.34473 19.2515 4.12692 20 3.79454C19.4493 4.61917 18.756 5.33893 17.9525 5.92001Z" fill="#1D9BF0"/>
</svg>
